<?xml version="1.0" standalone="no"?>
<!DOCTYPE svg PUBLIC "-//W3C//DTD SVG 1.1//EN" "http://www.w3.org/Graphics/SVG/1.1/DTD/svg11.dtd">
<svg xmlns="http://www.w3.org/2000/svg" width="694" height="113" viewBox="0 0 694 113" fill="none">
<path fill-rule="evenodd" clip-rule="evenodd" d="M14.8215 30.5511C14.8215 25.0635 19.3304 20.6149 24.8925 20.6149H49.6343C57.3141 20.6149 59.0679 10.4436 52.6545 7.58016C51.921 7.25269 51.3628 6.56946 51.3628 5.76241C51.3628 4.65537 52.3661 3.82262 53.4469 4.03252L85.2235 10.2038L117.665 18.565C124.734 19.7487 129.906 25.7905 129.906 32.8641V45.7669C129.906 46.737 130.829 47.4679 131.794 47.4679C138.535 47.4679 144 53.9451 144 61.9351C144 69.9251 138.535 76.4023 131.794 76.4023C130.829 76.4023 129.906 77.1332 129.906 78.1033V90.842C129.906 98.8522 123.324 105.346 115.205 105.346L95.6264 106.766C80.5728 107.858 65.4612 107.874 50.4053 106.815L29.522 105.346C21.4031 105.346 14.8215 98.8522 14.8215 90.842V76.4024C14.8215 75.7691 14.1628 75.3251 13.5412 75.426C13.1367 75.4918 12.6928 75.5255 12.2059 75.5255C5.46478 75.5255 0 69.0483 0 61.0583C0 53.0683 5.46478 46.5911 12.2059 46.5911C12.3667 46.5911 12.5227 46.5948 12.6742 46.6021C13.714 46.6522 14.8215 45.8844 14.8215 44.8375V30.5511ZM31.4402 35.0791C27.8077 35.0791 24.8629 37.9818 24.8629 41.5625V77.8695C24.8629 81.4502 27.8077 84.3529 31.4401 84.3529H48.9815C48.9801 84.4248 48.9794 84.4969 48.9794 84.569C48.9794 93.282 59.1877 100.345 71.7804 100.345C84.373 100.345 94.5814 93.282 94.5814 84.569C94.5814 84.4969 94.5807 84.4248 94.5793 84.3529H112.559C116.192 84.3529 119.136 81.4502 119.136 77.8695V41.5625C119.136 37.9818 116.192 35.0791 112.559 35.0791H85.9599C83.8068 35.0791 81.7901 36.1178 80.5606 37.8601L77.7008 41.9124C75.003 45.7352 69.2181 45.5912 66.7195 41.639L64.5033 38.1335C63.3023 36.2337 61.1921 35.0791 58.9213 35.0791H31.4402ZM49.1986 71.8183C55.8582 71.8183 61.2568 66.4967 61.2568 59.9321C61.2568 53.3675 55.8582 48.0459 49.1986 48.0459C42.5391 48.0459 37.1404 53.3675 37.1404 59.9321C37.1404 66.4967 42.5391 71.8183 49.1986 71.8183ZM108.613 59.9321C108.613 66.4967 103.214 71.8183 96.5546 71.8183C89.895 71.8183 84.4963 66.4967 84.4963 59.9321C84.4963 53.3675 89.895 48.0459 96.5546 48.0459C103.214 48.0459 108.613 53.3675 108.613 59.9321Z" fill="url(#paint0_linear_616_65)"/>
<path d="M190.112 89.96C185.248 89.96 180.8 89.096 176.768 87.368C172.8 85.64 169.568 83.208 167.072 80.072L174.656 72.392C176.192 74.696 178.24 76.584 180.8 78.056C183.36 79.528 186.4 80.264 189.92 80.264C192.416 80.264 194.4 79.912 195.872 79.208C197.408 78.44 198.176 77.256 198.176 75.656C198.176 74.632 197.824 73.768 197.12 73.064C196.416 72.296 195.008 71.688 192.896 71.24L184.448 69.512C178.88 68.36 174.912 66.632 172.544 64.328C170.24 61.96 169.088 58.92 169.088 55.208C169.088 52.584 169.856 50.12 171.392 47.816C172.992 45.512 175.36 43.656 178.496 42.248C181.632 40.776 185.536 40.04 190.208 40.04C195.008 40.04 199.168 40.808 202.688 42.344C206.272 43.816 209.088 46.024 211.136 48.968L203.264 56.648C201.856 54.408 200 52.712 197.696 51.56C195.456 50.344 193.088 49.736 190.592 49.736C188.8 49.736 187.264 49.928 185.984 50.312C184.704 50.696 183.744 51.24 183.104 51.944C182.464 52.584 182.144 53.416 182.144 54.44C182.144 55.464 182.592 56.36 183.488 57.128C184.384 57.832 186.016 58.44 188.384 58.952L198.176 60.968C202.912 61.928 206.304 63.56 208.352 65.864C210.4 68.104 211.424 70.824 211.424 74.024C211.424 77.096 210.592 79.848 208.928 82.28C207.328 84.648 204.928 86.536 201.728 87.944C198.592 89.288 194.72 89.96 190.112 89.96ZM235.933 40.04C240.797 40.04 245.053 41.032 248.701 43.016C252.413 45 255.293 47.848 257.34 51.56C259.453 55.272 260.509 59.752 260.509 65C260.509 70.184 259.453 74.664 257.34 78.44C255.293 82.152 252.413 85 248.701 86.984C245.053 88.968 240.797 89.96 235.933 89.96C231.133 89.96 226.877 88.968 223.165 86.984C219.453 85 216.541 82.152 214.429 78.44C212.381 74.664 211.357 70.184 211.357 65C211.357 59.752 212.381 55.272 214.429 51.56C216.541 47.848 219.453 45 223.165 43.016C226.877 41.032 231.133 40.04 235.933 40.04ZM235.933 49.832C233.501 49.832 231.421 50.408 229.693 51.56C228.029 52.648 226.749 54.312 225.853 56.552C224.957 58.792 224.509 61.608 224.509 65C224.509 68.392 224.957 71.208 225.853 73.448C226.749 75.688 228.029 77.384 229.693 78.536C231.421 79.624 233.501 80.168 235.933 80.168C238.301 80.168 240.317 79.624 241.981 78.536C243.709 77.384 245.021 75.688 245.917 73.448C246.813 71.208 247.261 68.392 247.261 65C247.261 61.608 246.813 58.792 245.917 56.552C245.021 54.312 243.709 52.648 241.981 51.56C240.317 50.408 238.301 49.832 235.933 49.832ZM280.537 89.96C277.337 89.96 274.457 89.384 271.897 88.232C269.337 87.08 267.289 85.256 265.753 82.76C264.281 80.2 263.545 76.904 263.545 72.872V41H276.697V69.704C276.697 73.416 277.465 76.008 279.001 77.48C280.537 78.888 282.745 79.592 285.625 79.592C286.969 79.592 288.281 79.368 289.561 78.92C290.841 78.408 291.961 77.64 292.921 76.616C293.945 75.592 294.745 74.28 295.321 72.68C295.897 71.016 296.185 69.064 296.185 66.824V41H309.337V89H297.625L297.145 80.648C295.545 83.848 293.337 86.216 290.521 87.752C287.769 89.224 284.441 89.96 280.537 89.96ZM334.697 89.96C329.833 89.96 325.385 89.096 321.353 87.368C317.385 85.64 314.153 83.208 311.657 80.072L319.241 72.392C320.777 74.696 322.825 76.584 325.385 78.056C327.945 79.528 330.985 80.264 334.505 80.264C337.001 80.264 338.985 79.912 340.457 79.208C341.993 78.44 342.761 77.256 342.761 75.656C342.761 74.632 342.409 73.768 341.705 73.064C341.001 72.296 339.593 71.688 337.481 71.24L329.033 69.512C323.465 68.36 319.497 66.632 317.129 64.328C314.825 61.96 313.673 58.92 313.673 55.208C313.673 52.584 314.441 50.12 315.977 47.816C317.577 45.512 319.945 43.656 323.081 42.248C326.217 40.776 330.121 40.04 334.793 40.04C339.593 40.04 343.753 40.808 347.273 42.344C350.857 43.816 353.673 46.024 355.721 48.968L347.849 56.648C346.441 54.408 344.585 52.712 342.281 51.56C340.041 50.344 337.673 49.736 335.177 49.736C333.385 49.736 331.849 49.928 330.569 50.312C329.289 50.696 328.329 51.24 327.689 51.944C327.049 52.584 326.729 53.416 326.729 54.44C326.729 55.464 327.177 56.36 328.073 57.128C328.969 57.832 330.601 58.44 332.969 58.952L342.761 60.968C347.497 61.928 350.889 63.56 352.937 65.864C354.985 68.104 356.009 70.824 356.009 74.024C356.009 77.096 355.177 79.848 353.513 82.28C351.913 84.648 349.513 86.536 346.313 87.944C343.177 89.288 339.305 89.96 334.697 89.96ZM386.177 58.376C386.177 55.624 385.377 53.48 383.777 51.944C382.241 50.408 380.193 49.64 377.633 49.64C375.265 49.64 373.185 50.248 371.393 51.464C369.601 52.68 368.289 54.696 367.457 57.512L356.225 54.056C357.313 49.832 359.681 46.44 363.329 43.88C367.041 41.32 372.001 40.04 378.209 40.04C382.433 40.04 386.113 40.712 389.249 42.056C392.385 43.336 394.817 45.288 396.545 47.912C398.337 50.536 399.233 53.832 399.233 57.8V77.288C399.233 79.72 400.385 80.936 402.689 80.936C403.777 80.936 404.801 80.776 405.761 80.456L404.993 88.616C403.329 89.448 401.249 89.864 398.753 89.864C396.513 89.864 394.497 89.48 392.705 88.712C390.913 87.944 389.505 86.792 388.481 85.256C387.457 83.656 386.945 81.672 386.945 79.304V78.92L389.249 78.536C388.865 80.968 387.809 83.048 386.081 84.776C384.353 86.44 382.241 87.72 379.745 88.616C377.313 89.512 374.785 89.96 372.161 89.96C368.897 89.96 366.081 89.48 363.713 88.52C361.345 87.496 359.521 86.024 358.241 84.104C356.961 82.184 356.321 79.816 356.321 77C356.321 73.416 357.473 70.504 359.777 68.264C362.081 65.96 365.377 64.392 369.665 63.56L387.713 59.912L387.617 68.072L376.097 70.376C373.921 70.824 372.257 71.432 371.105 72.2C370.017 72.904 369.473 74.088 369.473 75.752C369.473 77.352 370.049 78.568 371.201 79.4C372.417 80.232 373.857 80.648 375.521 80.648C376.865 80.648 378.177 80.488 379.457 80.168C380.737 79.848 381.889 79.336 382.913 78.632C383.937 77.928 384.737 76.968 385.313 75.752C385.889 74.536 386.177 73.064 386.177 71.336V58.376ZM425.462 89.96C420.598 89.96 416.15 89.096 412.118 87.368C408.15 85.64 404.918 83.208 402.422 80.072L410.006 72.392C411.542 74.696 413.59 76.584 416.15 78.056C418.71 79.528 421.75 80.264 425.27 80.264C427.766 80.264 429.75 79.912 431.222 79.208C432.758 78.44 433.526 77.256 433.526 75.656C433.526 74.632 433.174 73.768 432.47 73.064C431.766 72.296 430.358 71.688 428.246 71.24L419.798 69.512C414.23 68.36 410.262 66.632 407.894 64.328C405.59 61.96 404.438 58.92 404.438 55.208C404.438 52.584 405.206 50.12 406.742 47.816C408.342 45.512 410.71 43.656 413.846 42.248C416.982 40.776 420.886 40.04 425.558 40.04C430.358 40.04 434.518 40.808 438.038 42.344C441.622 43.816 444.438 46.024 446.486 48.968L438.614 56.648C437.206 54.408 435.35 52.712 433.046 51.56C430.806 50.344 428.438 49.736 425.942 49.736C424.15 49.736 422.614 49.928 421.334 50.312C420.054 50.696 419.094 51.24 418.454 51.944C417.814 52.584 417.494 53.416 417.494 54.44C417.494 55.464 417.942 56.36 418.838 57.128C419.734 57.832 421.366 58.44 423.734 58.952L433.526 60.968C438.262 61.928 441.654 63.56 443.702 65.864C445.75 68.104 446.774 70.824 446.774 74.024C446.774 77.096 445.942 79.848 444.278 82.28C442.678 84.648 440.278 86.536 437.078 87.944C433.942 89.288 430.07 89.96 425.462 89.96ZM471.246 89V41H483.054L483.534 49.64C485.134 46.44 487.31 44.04 490.062 42.44C492.878 40.84 495.982 40.04 499.374 40.04C502.83 40.04 505.934 40.84 508.686 42.44C511.502 44.04 513.614 46.408 515.022 49.544C516.046 47.432 517.422 45.672 519.15 44.264C520.878 42.856 522.798 41.8 524.91 41.096C527.022 40.392 529.166 40.04 531.342 40.04C534.478 40.04 537.326 40.68 539.886 41.96C542.51 43.24 544.59 45.16 546.126 47.72C547.662 50.28 548.43 53.544 548.43 57.512V89H535.278V60.104C535.278 56.584 534.51 54.088 532.974 52.616C531.438 51.144 529.454 50.408 527.022 50.408C525.102 50.408 523.31 50.888 521.646 51.848C520.046 52.808 518.766 54.248 517.806 56.168C516.91 58.024 516.462 60.36 516.462 63.176V89H503.31V60.104C503.31 56.584 502.51 54.088 500.91 52.616C499.374 51.144 497.39 50.408 494.958 50.408C493.294 50.408 491.63 50.856 489.966 51.752C488.366 52.648 487.022 54.056 485.934 55.976C484.91 57.896 484.398 60.424 484.398 63.56V89H471.246ZM560.94 34.088C558.188 34.088 556.14 33.512 554.796 32.36C553.452 31.144 552.78 29.384 552.78 27.08C552.78 24.712 553.452 22.952 554.796 21.8C556.14 20.584 558.188 19.976 560.94 19.976C563.692 19.976 565.74 20.584 567.084 21.8C568.428 22.952 569.1 24.712 569.1 27.08C569.1 29.384 568.428 31.144 567.084 32.36C565.74 33.512 563.692 34.088 560.94 34.088ZM567.468 41V89H554.316V41H567.468ZM591.874 89.96C587.906 89.96 584.354 88.968 581.218 86.984C578.146 85 575.714 82.152 573.922 78.44C572.194 74.728 571.33 70.28 571.33 65.096C571.33 59.784 572.258 55.272 574.114 51.56C575.97 47.784 578.466 44.936 581.602 43.016C584.802 41.032 588.386 40.04 592.354 40.04C596.578 40.04 600.066 41.256 602.818 43.688C605.57 46.12 607.362 49.256 608.194 53.096L606.946 54.632V19.976H620.098V89H608.29L607.426 74.408L608.962 75.176C608.578 78.184 607.586 80.808 605.986 83.048C604.386 85.224 602.37 86.92 599.938 88.136C597.506 89.352 594.818 89.96 591.874 89.96ZM595.714 79.88C598.018 79.88 600.002 79.304 601.666 78.152C603.33 76.936 604.61 75.176 605.506 72.872C606.466 70.568 606.946 67.816 606.946 64.616C606.946 61.544 606.498 58.952 605.602 56.84C604.706 54.664 603.426 53 601.762 51.848C600.098 50.696 598.146 50.12 595.906 50.12C592.322 50.12 589.506 51.4 587.458 53.96C585.474 56.456 584.482 60.136 584.482 65C584.482 69.864 585.474 73.576 587.458 76.136C589.442 78.632 592.194 79.88 595.714 79.88ZM632.861 34.088C630.109 34.088 628.061 33.512 626.717 32.36C625.373 31.144 624.701 29.384 624.701 27.08C624.701 24.712 625.373 22.952 626.717 21.8C628.061 20.584 630.109 19.976 632.861 19.976C635.613 19.976 637.661 20.584 639.005 21.8C640.349 22.952 641.021 24.712 641.021 27.08C641.021 29.384 640.349 31.144 639.005 32.36C637.661 33.512 635.613 34.088 632.861 34.088ZM639.389 41V89H626.237V41H639.389ZM673.011 58.376C673.011 55.624 672.211 53.48 670.611 51.944C669.075 50.408 667.027 49.64 664.467 49.64C662.099 49.64 660.019 50.248 658.227 51.464C656.435 52.68 655.123 54.696 654.291 57.512L643.059 54.056C644.147 49.832 646.515 46.44 650.163 43.88C653.875 41.32 658.835 40.04 665.043 40.04C669.267 40.04 672.947 40.712 676.083 42.056C679.219 43.336 681.651 45.288 683.379 47.912C685.171 50.536 686.067 53.832 686.067 57.8V77.288C686.067 79.72 687.219 80.936 689.523 80.936C690.611 80.936 691.635 80.776 692.595 80.456L691.827 88.616C690.163 89.448 688.083 89.864 685.587 89.864C683.347 89.864 681.331 89.48 679.539 88.712C677.747 87.944 676.339 86.792 675.315 85.256C674.291 83.656 673.779 81.672 673.779 79.304V78.92L676.083 78.536C675.699 80.968 674.643 83.048 672.915 84.776C671.187 86.44 669.075 87.72 666.579 88.616C664.147 89.512 661.619 89.96 658.995 89.96C655.731 89.96 652.915 89.48 650.547 88.52C648.179 87.496 646.355 86.024 645.075 84.104C643.795 82.184 643.155 79.816 643.155 77C643.155 73.416 644.307 70.504 646.611 68.264C648.915 65.96 652.211 64.392 656.499 63.56L674.547 59.912L674.451 68.072L662.931 70.376C660.755 70.824 659.091 71.432 657.939 72.2C656.851 72.904 656.307 74.088 656.307 75.752C656.307 77.352 656.883 78.568 658.035 79.4C659.251 80.232 660.691 80.648 662.355 80.648C663.699 80.648 665.011 80.488 666.291 80.168C667.571 79.848 668.723 79.336 669.747 78.632C670.771 77.928 671.571 76.968 672.147 75.752C672.723 74.536 673.011 73.064 673.011 71.336V58.376Z" fill="url(#paint1_linear_616_65)"/>
<defs>
<linearGradient id="paint0_linear_616_65" x1="72" y1="4" x2="72" y2="107.597" gradientUnits="userSpaceOnUse">
<stop stop-color="#5500E0"/>
<stop offset="0.4785" stop-color="#8342EF"/>
<stop offset="1" stop-color="#B689FF"/>
</linearGradient>
<linearGradient id="paint1_linear_616_65" x1="429" y1="0" x2="429" y2="113" gradientUnits="userSpaceOnUse">
<stop stop-color="#5500E0"/>
<stop offset="0.4785" stop-color="#8342EF"/>
<stop offset="1" stop-color="#B689FF"/>
</linearGradient>
</defs>
</svg>