<?xml version="1.0" standalone="no"?>
<!DOCTYPE svg PUBLIC "-//W3C//DTD SVG 1.1//EN" "http://www.w3.org/Graphics/SVG/1.1/DTD/svg11.dtd">
<svg xmlns="http://www.w3.org/2000/svg" width="330" height="234" viewBox="0 0 330 234" fill="none">
<path fill-rule="evenodd" clip-rule="evenodd" d="M33.9187 59.9722C33.9187 47.5771 44.2374 37.5289 56.9662 37.5289H113.587C131.163 37.5289 135.176 14.5544 120.499 8.08668C118.821 7.34702 117.543 5.80378 117.543 3.98085C117.543 1.48031 119.839 -0.40066 122.313 0.0734638L195.033 14.0128L269.276 32.8986C285.452 35.5724 297.288 49.2194 297.288 65.1968V94.341C297.288 96.5322 299.402 98.183 301.609 98.183C317.036 98.183 329.542 112.813 329.542 130.861C329.542 148.908 317.036 163.539 301.609 163.539C299.402 163.539 297.288 165.19 297.288 167.381V196.154C297.288 214.247 282.226 228.915 263.646 228.915L218.84 232.122C184.39 234.588 149.807 234.625 115.352 232.233L67.5608 228.915C48.9808 228.915 33.9187 214.247 33.9187 196.154V163.539C33.9187 162.108 32.4113 161.105 30.9888 161.334C30.0631 161.482 29.0474 161.558 27.9331 161.558C12.5061 161.558 0 146.928 0 128.88C0 110.833 12.5061 96.2026 27.9331 96.2026C28.3009 96.2026 28.6581 96.2109 29.0047 96.2274C31.3843 96.3405 33.9187 94.6064 33.9187 92.2416V59.9722ZM71.9513 70.2C63.6384 70.2 56.8994 76.7565 56.8994 84.8444V166.853C56.8994 174.941 63.6384 181.497 71.9513 181.497H112.094C112.091 181.66 112.09 181.822 112.09 181.985C112.09 201.666 135.451 217.62 164.269 217.62C193.088 217.62 216.449 201.666 216.449 181.985C216.449 181.822 216.448 181.66 216.444 181.497H257.591C265.904 181.497 272.643 174.941 272.643 166.853V84.8444C272.643 76.7565 265.904 70.2 257.591 70.2H196.719C191.792 70.2 187.177 72.5463 184.363 76.4815L177.818 85.6348C171.644 94.2694 158.406 93.9441 152.688 85.0172L147.616 77.0991C144.867 72.8081 140.038 70.2 134.842 70.2H71.9513ZM112.591 153.185C127.832 153.185 140.186 141.165 140.186 126.337C140.186 111.509 127.832 99.4887 112.591 99.4887C97.351 99.4887 84.9962 111.509 84.9962 126.337C84.9962 141.165 97.351 153.185 112.591 153.185ZM248.56 126.337C248.56 141.165 236.205 153.185 220.965 153.185C205.724 153.185 193.37 141.165 193.37 126.337C193.37 111.509 205.724 99.4887 220.965 99.4887C236.205 99.4887 248.56 111.509 248.56 126.337Z" fill="#8949F1"/>
</svg>